<?xml version="1.0" encoding="UTF-8" standalone="no"?>
<svg width="315px" height="231px" viewBox="0 0 315 231" version="1.1" xmlns="http://www.w3.org/2000/svg" xmlns:xlink="http://www.w3.org/1999/xlink" xmlns:sketch="http://www.bohemiancoding.com/sketch/ns">
    <title>antwar</title>
    <description>Created with Sketch (http://www.bohemiancoding.com/sketch)</description>
    <defs></defs>
    <g id="Page-1" stroke="none" stroke-width="1" fill="none" fill-rule="evenodd" sketch:type="MSPage">
        <path d="M36.8559695,18.6390621 C9.918946,35.5897892 5.86069969e-06,64.4758955 1.13686838e-13,115.242563 C-1.39790423e-06,166.109496 9.78475135,194.893053 36.612519,211.832903 C49.4168339,219.917929 65.6034683,224.715779 87.050036,227.395179 C105.058926,229.645097 126.805448,230.485133 159.055009,230.48513 C193.310835,230.48513 213.117454,229.911195 230.229538,228.06403 C251.563418,225.761143 267.269345,221.379886 279.693836,213.532958 C293.43087,204.857066 302.554539,192.214729 307.884127,175.020065 C312.547053,159.97623 314.499998,141.109093 314.5,115.242566 C314.500003,89.4121624 312.510813,70.4967888 307.78599,55.417934 C302.403626,38.240595 293.223055,25.606378 279.449489,16.9384228 C267.001664,9.10478081 251.286881,4.72464626 229.981747,2.42137431 C212.896419,0.574300459 193.146737,-2.73741131e-06 159.055006,5.68434189e-14 C126.961835,2.57693608e-06 105.278636,0.840526313 87.2974964,3.09032358 C65.8792313,5.77017346 49.6839494,10.5667675 36.8559695,18.6390621 Z M90,92 C90,87.5817218 86.4182782,84 82,84 C77.5817218,84 74,87.5817218 74,92 C74,96.4182782 77.5817218,100 82,100 C86.4182782,100 90,96.4182782 90,92 Z M64,185 C64,180.581722 60.4182782,177 56,177 C51.5817218,177 48,180.581722 48,185 C48,189.418278 51.5817218,193 56,193 C60.4182782,193 64,189.418278 64,185 Z M284,68 C284,63.5817218 280.418278,60 276,60 C271.581722,60 268,63.5817218 268,68 C268,72.4182782 271.581722,76 276,76 C280.418278,76 284,72.4182782 284,68 Z M259,48 C259,43.5817218 255.418278,40 251,40 C246.581722,40 243,43.5817218 243,48 C243,52.4182782 246.581722,56 251,56 C255.418278,56 259,52.4182782 259,48 Z M58,58 C58,53.5817218 54.4182782,50 50,50 C45.5817218,50 42,53.5817218 42,58 C42,62.4182782 45.5817218,66 50,66 C54.4182782,66 58,62.4182782 58,58 Z M259,90 C259,85.5817218 255.418278,82 251,82 C246.581722,82 243,85.5817218 243,90 C243,94.4182782 246.581722,98 251,98 C255.418278,98 259,94.4182782 259,90 Z M132,196 C132,191.581722 128.418278,188 124,188 C119.581722,188 116,191.581722 116,196 C116,200.418278 119.581722,204 124,204 C128.418278,204 132,200.418278 132,196 Z M209,188 C209,183.581722 205.418278,180 201,180 C196.581722,180 193,183.581722 193,188 C193,192.418278 196.581722,196 201,196 C205.418278,196 209,192.418278 209,188 Z M128,33 C128,28.5817218 124.418278,25 120,25 C115.581722,25 112,28.5817218 112,33 C112,37.4182782 115.581722,41 120,41 C124.418278,41 128,37.4182782 128,33 Z M185,31 C185,26.5817218 181.418278,23 177,23 C172.581722,23 169,26.5817218 169,31 C169,35.4182782 172.581722,39 177,39 C181.418278,39 185,35.4182782 185,31 Z M201,95 C201,90.5817218 197.418278,87 193,87 C188.581722,87 185,90.5817218 185,95 C185,99.4182782 188.581722,103 193,103 C197.418278,103 201,99.4182782 201,95 Z M199,72 C199,67.5817218 195.418278,64 191,64 C186.581722,64 183,67.5817218 183,72 C183,76.4182782 186.581722,80 191,80 C195.418278,80 199,76.4182782 199,72 Z M49,160 C49,155.581722 45.4182782,152 41,152 C36.5817218,152 33,155.581722 33,160 C33,164.418278 36.5817218,168 41,168 C45.4182782,168 49,164.418278 49,160 Z M86,131 C86,126.581722 82.4182782,123 78,123 C73.5817218,123 70,126.581722 70,131 C70,135.418278 73.5817218,139 78,139 C82.4182782,139 86,135.418278 86,131 Z M190,119 C190,114.581722 186.418278,111 182,111 C177.581722,111 174,114.581722 174,119 C174,123.418278 177.581722,127 182,127 C186.418278,127 190,123.418278 190,119 Z M179,104 C179,99.5817218 175.418278,96 171,96 C166.581722,96 163,99.5817218 163,104 C163,108.418278 166.581722,112 171,112 C175.418278,112 179,108.418278 179,104 Z M161,75 C161,70.5817218 157.418278,67 153,67 C148.581722,67 145,70.5817218 145,75 C145,79.4182782 148.581722,83 153,83 C157.418278,83 161,79.4182782 161,75 Z M84,42 C84,37.5817218 80.4182782,34 76,34 C71.5817218,34 68,37.5817218 68,42 C68,46.4182782 71.5817218,50 76,50 C80.4182782,50 84,46.4182782 84,42 Z M179,151 C179,146.581722 175.418278,143 171,143 C166.581722,143 163,146.581722 163,151 C163,155.418278 166.581722,159 171,159 C175.418278,159 179,155.418278 179,151 Z M231,195 C231,190.581722 227.418278,187 223,187 C218.581722,187 215,190.581722 215,195 C215,199.418278 218.581722,203 223,203 C227.418278,203 231,199.418278 231,195 Z M151,106 C151,101.581722 147.418278,98 143,98 C138.581722,98 135,101.581722 135,106 C135,110.418278 138.581722,114 143,114 C147.418278,114 151,110.418278 151,106 Z M55,128 C55,123.581722 51.4182782,120 47,120 C42.5817218,120 39,123.581722 39,128 C39,132.418278 42.5817218,136 47,136 C51.4182782,136 55,132.418278 55,128 Z M164,188 C164,183.581722 160.418278,180 156,180 C151.581722,180 148,183.581722 148,188 C148,192.418278 151.581722,196 156,196 C160.418278,196 164,192.418278 164,188 Z M261,181 C261,176.581722 257.418278,173 253,173 C248.581722,173 245,176.581722 245,181 C245,185.418278 248.581722,189 253,189 C257.418278,189 261,185.418278 261,181 Z M279,156 C279,151.581722 275.418278,148 271,148 C266.581722,148 263,151.581722 263,156 C263,160.418278 266.581722,164 271,164 C275.418278,164 279,160.418278 279,156 Z M106,144 C106,139.581722 102.418278,136 98,136 C93.5817218,136 90,139.581722 90,144 C90,148.418278 93.5817218,152 98,152 C102.418278,152 106,148.418278 106,144 Z M282,97 C282,92.5817218 278.418278,89 274,89 C269.581722,89 266,92.5817218 266,97 C266,101.418278 269.581722,105 274,105 C278.418278,105 282,101.418278 282,97 Z M151,49 C151,44.5817218 147.418278,41 143,41 C138.581722,41 135,44.5817218 135,49 C135,53.4182782 138.581722,57 143,57 C147.418278,57 151,53.4182782 151,49 Z M68,92 C68,87.5817218 64.4182782,84 60,84 C55.5817218,84 52,87.5817218 52,92 C52,96.4182782 55.5817218,100 60,100 C64.4182782,100 68,96.4182782 68,92 Z M85,65 C85,60.5817218 81.4182782,57 77,57 C72.5817218,57 69,60.5817218 69,65 C69,69.4182782 72.5817218,73 77,73 C81.4182782,73 85,69.4182782 85,65 Z M213,46 C213,41.5817218 209.418278,38 205,38 C200.581722,38 197,41.5817218 197,46 C197,50.4182782 200.581722,54 205,54 C209.418278,54 213,50.4182782 213,46 Z M131,74 C131,69.5817218 127.418278,66 123,66 C118.581722,66 115,69.5817218 115,74 C115,78.4182782 118.581722,82 123,82 C127.418278,82 131,78.4182782 131,74 Z M227,68 C227,63.5817218 223.418278,60 219,60 C214.581722,60 211,63.5817218 211,68 C211,72.4182782 214.581722,76 219,76 C223.418278,76 227,72.4182782 227,68 Z M233,34 C233,29.5817218 229.418278,26 225,26 C220.581722,26 217,29.5817218 217,34 C217,38.4182782 220.581722,42 225,42 C229.418278,42 233,38.4182782 233,34 Z M111,53 C111,48.5817218 107.418278,45 103,45 C98.5817218,45 95,48.5817218 95,53 C95,57.4182782 98.5817218,61 103,61 C107.418278,61 111,57.4182782 111,53 Z M227,160 C227,155.581722 223.418278,152 219,152 C214.581722,152 211,155.581722 211,160 C211,164.418278 214.581722,168 219,168 C223.418278,168 227,164.418278 227,160 Z M128,98 C128,93.5817218 124.418278,90 120,90 C115.581722,90 112,93.5817218 112,98 C112,102.418278 115.581722,106 120,106 C124.418278,106 128,102.418278 128,98 Z M117,122 C117,117.581722 113.418278,114 109,114 C104.581722,114 101,117.581722 101,122 C101,126.418278 104.581722,130 109,130 C113.418278,130 117,126.418278 117,122 Z M42,96 C42,91.5817218 38.4182782,88 34,88 C29.5817218,88 26,91.5817218 26,96 C26,100.418278 29.5817218,104 34,104 C38.4182782,104 42,100.418278 42,96 Z M227,127 C227,122.581722 223.418278,119 219,119 C214.581722,119 211,122.581722 211,127 C211,131.418278 214.581722,135 219,135 C223.418278,135 227,131.418278 227,127 Z M179,56 C179,51.5817218 175.418278,48 171,48 C166.581722,48 163,51.5817218 163,56 C163,60.4182782 166.581722,64 171,64 C175.418278,64 179,60.4182782 179,56 Z M253,150 C253,145.581722 249.418278,142 245,142 C240.581722,142 237,145.581722 237,150 C237,154.418278 240.581722,158 245,158 C249.418278,158 253,154.418278 253,150 Z M92,183 C92,178.581722 88.4182782,175 84,175 C79.5817218,175 76,178.581722 76,183 C76,187.418278 79.5817218,191 84,191 C88.4182782,191 92,187.418278 92,183 Z M196,171 C196,166.581722 192.418278,163 188,163 C183.581722,163 180,166.581722 180,171 C180,175.418278 183.581722,179 188,179 C192.418278,179 196,175.418278 196,171 Z M167,127 C167,122.581722 163.418278,119 159,119 C154.581722,119 151,122.581722 151,127 C151,131.418278 154.581722,135 159,135 C163.418278,135 167,131.418278 167,127 Z M77,153 C77,148.581722 73.4182782,145 69,145 C64.5817218,145 61,148.581722 61,153 C61,157.418278 64.5817218,161 69,161 C73.4182782,161 77,157.418278 77,153 Z M231,98 C231,93.5817218 227.418278,90 223,90 C218.581722,90 215,93.5817218 215,98 C215,102.418278 218.581722,106 223,106 C227.418278,106 231,102.418278 231,98 Z M201,143 C201,138.581722 197.418278,135 193,135 C188.581722,135 185,138.581722 185,143 C185,147.418278 188.581722,151 193,151 C197.418278,151 201,147.418278 201,143 Z M147,165 C147,160.581722 143.418278,157 139,157 C134.581722,157 131,160.581722 131,165 C131,169.418278 134.581722,173 139,173 C143.418278,173 147,169.418278 147,165 Z M116,169 C116,164.581722 112.418278,161 108,161 C103.581722,161 100,164.581722 100,169 C100,173.418278 103.581722,177 108,177 C112.418278,177 116,173.418278 116,169 Z M144,139 C144,134.581722 140.418278,131 136,131 C131.581722,131 128,134.581722 128,139 C128,143.418278 131.581722,147 136,147 C140.418278,147 144,143.418278 144,139 Z M251,121 C251,116.581722 247.418278,113 243,113 C238.581722,113 235,116.581722 235,121 C235,125.418278 238.581722,129 243,129 C247.418278,129 251,125.418278 251,121 Z M278,128 C278,123.581722 274.418278,120 270,120 C265.581722,120 262,123.581722 262,128 C262,132.418278 265.581722,136 270,136 C274.418278,136 278,132.418278 278,128 Z M188,198 C188,193.581722 184.418278,190 180,190 C175.581722,190 172,193.581722 172,198 C172,202.418278 175.581722,206 180,206 C184.418278,206 188,202.418278 188,198 Z M159.055007,214.48513 C272.048443,214.48513 298.499994,208.95251 298.5,115.242565 C298.500011,21.5326198 271.454979,15.999991 159.055007,16 C46.655035,16.000009 16.0000103,26.0683836 16,115.242565 C15.9999975,204.416747 46.0615706,214.485141 159.055007,214.48513 Z" id="Oval-1" fill="#000000" sketch:type="MSShapeGroup"></path>
    </g>
</svg>